<mxfile host="app.diagrams.net" agent="Mozilla/5.0 (Macintosh; Intel Mac OS X 10_15_7) AppleWebKit/537.36 (KHTML, like Gecko) Chrome/126.0.0.0 Safari/537.36" version="24.7.6">
  <diagram name="Page-1" id="e7e014a7-5840-1c2e-5031-d8a46d1fe8dd">
    <mxGraphModel dx="1046" dy="728" grid="1" gridSize="10" guides="1" tooltips="1" connect="1" arrows="1" fold="1" page="1" pageScale="1" pageWidth="1169" pageHeight="826" background="none" math="0" shadow="0">
      <root>
        <mxCell id="0" />
        <mxCell id="1" parent="0" />
        <mxCell id="ow3an0deqd2BCiCpwTDR-51" style="edgeStyle=orthogonalEdgeStyle;rounded=0;orthogonalLoop=1;jettySize=auto;html=1;exitX=0.75;exitY=1;exitDx=0;exitDy=0;entryX=0.5;entryY=0;entryDx=0;entryDy=0;" edge="1" parent="1" source="7" target="ow3an0deqd2BCiCpwTDR-45">
          <mxGeometry relative="1" as="geometry" />
        </mxCell>
        <mxCell id="ow3an0deqd2BCiCpwTDR-52" style="edgeStyle=orthogonalEdgeStyle;rounded=0;orthogonalLoop=1;jettySize=auto;html=1;exitX=0.25;exitY=1;exitDx=0;exitDy=0;entryX=0.5;entryY=0;entryDx=0;entryDy=0;" edge="1" parent="1" source="7" target="ow3an0deqd2BCiCpwTDR-45">
          <mxGeometry relative="1" as="geometry" />
        </mxCell>
        <mxCell id="7" value="Account" style="" parent="1" vertex="1">
          <mxGeometry x="527" y="40" width="110" height="50" as="geometry" />
        </mxCell>
        <mxCell id="ow3an0deqd2BCiCpwTDR-45" value="Share" style="swimlane;fontStyle=0;childLayout=stackLayout;horizontal=1;startSize=30;horizontalStack=0;resizeParent=1;resizeParentMax=0;resizeLast=0;collapsible=1;marginBottom=0;whiteSpace=wrap;html=1;" vertex="1" parent="1">
          <mxGeometry x="512" y="200" width="145" height="180" as="geometry">
            <mxRectangle x="5" y="520" width="70" height="30" as="alternateBounds" />
          </mxGeometry>
        </mxCell>
        <object label="id" id="ow3an0deqd2BCiCpwTDR-56">
          <mxCell style="text;strokeColor=none;fillColor=none;align=left;verticalAlign=middle;spacingLeft=4;spacingRight=4;overflow=hidden;points=[[0,0.5],[1,0.5]];portConstraint=eastwest;rotatable=0;whiteSpace=wrap;html=1;" vertex="1" parent="ow3an0deqd2BCiCpwTDR-45">
            <mxGeometry y="30" width="145" height="30" as="geometry" />
          </mxCell>
        </object>
        <object label="originId" id="ow3an0deqd2BCiCpwTDR-57">
          <mxCell style="text;strokeColor=none;fillColor=none;align=left;verticalAlign=middle;spacingLeft=4;spacingRight=4;overflow=hidden;points=[[0,0.5],[1,0.5]];portConstraint=eastwest;rotatable=0;whiteSpace=wrap;html=1;" vertex="1" parent="ow3an0deqd2BCiCpwTDR-45">
            <mxGeometry y="60" width="145" height="30" as="geometry" />
          </mxCell>
        </object>
        <mxCell id="ow3an0deqd2BCiCpwTDR-46" value="shareableId" style="text;strokeColor=none;fillColor=none;align=left;verticalAlign=middle;spacingLeft=4;spacingRight=4;overflow=hidden;points=[[0,0.5],[1,0.5]];portConstraint=eastwest;rotatable=0;whiteSpace=wrap;html=1;" vertex="1" parent="ow3an0deqd2BCiCpwTDR-45">
          <mxGeometry y="90" width="145" height="30" as="geometry" />
        </mxCell>
        <mxCell id="ow3an0deqd2BCiCpwTDR-47" value="recipientId" style="text;strokeColor=none;fillColor=none;align=left;verticalAlign=middle;spacingLeft=4;spacingRight=4;overflow=hidden;points=[[0,0.5],[1,0.5]];portConstraint=eastwest;rotatable=0;whiteSpace=wrap;html=1;" vertex="1" parent="ow3an0deqd2BCiCpwTDR-45">
          <mxGeometry y="120" width="145" height="30" as="geometry" />
        </mxCell>
        <object label="shareableType" id="ow3an0deqd2BCiCpwTDR-48">
          <mxCell style="text;strokeColor=none;fillColor=none;align=left;verticalAlign=middle;spacingLeft=4;spacingRight=4;overflow=hidden;points=[[0,0.5],[1,0.5]];portConstraint=eastwest;rotatable=0;whiteSpace=wrap;html=1;" vertex="1" parent="ow3an0deqd2BCiCpwTDR-45">
            <mxGeometry y="150" width="145" height="30" as="geometry" />
          </mxCell>
        </object>
      </root>
    </mxGraphModel>
  </diagram>
</mxfile>
